PathFileType	4	(X/Y/Z)	C:/Users/opensim2020/Desktop/walking_exp_matlab/subject02_walking07_straight_04.trc	
DataRate	CameraRate	NumFrames	NumMarkers	Units	OrigDataRate	OrigDataStartFrame	OrigNumFrames	
100.00	100.00	4	50	mm	100.00	2721	207	
Frame#	Time	LFHD			RFHD			LBHD			RBHD			C7			T10			CLAV			STRN			RBAK			LSHO			LUPA			LELB			LFRM			LWRA			LWRB			LFIN			RSHO			RUPA			RELB			RFRM			RWRA			RWRB			RFIN			LASI			RASI			LPSI			RPSI			LTHI			LKNE			LTIB			LANK			LHEE			LTOE			RTHI			RKNE			RTIB			RANK			RHEE			RTOE			*39			*40			*41			*42			*43			*44			*45			*46			*47			*48			*49			
		X1	Y1	Z1	X2	Y2	Z2	X3	Y3	Z3	X4	Y4	Z4	X5	Y5	Z5	X6	Y6	Z6	X7	Y7	Z7	X8	Y8	Z8	X9	Y9	Z9	X10	Y10	Z10	X11	Y11	Z11	X12	Y12	Z12	X13	Y13	Z13	X14	Y14	Z14	X15	Y15	Z15	X16	Y16	Z16	X17	Y17	Z17	X18	Y18	Z18	X19	Y19	Z19	X20	Y20	Z20	X21	Y21	Z21	X22	Y22	Z22	X23	Y23	Z23	X24	Y24	Z24	X25	Y25	Z25	X26	Y26	Z26	X27	Y27	Z27	X28	Y28	Z28	X29	Y29	Z29	X30	Y30	Z30	X31	Y31	Z31	X32	Y32	Z32	X33	Y33	Z33	X34	Y34	Z34	X35	Y35	Z35	X36	Y36	Z36	X37	Y37	Z37	X38	Y38	Z38	X39	Y39	Z39	X40	Y40	Z40	X41	Y41	Z41	X42	Y42	Z42	X43	Y43	Z43	X44	Y44	Z44	X45	Y45	Z45	X46	Y46	Z46	X47	Y47	Z47	X48	Y48	Z48	X49	Y49	Z49	X50	Y50	Z50	

1	0.000	-954.08234	704.48486	1717.69250	-1096.93152	721.91809	1704.40430	-933.25702	845.24896	1667.88513	-1073.51477	874.67194	1654.75269	-1005.20471	925.69867	1523.12073	-1022.13977	970.41833	1243.16943	-1004.77649	786.20453	1455.43750	-1024.72888	728.88208	1287.69458	-1071.50842	983.51282	1344.69116	-831.08698	849.13989	1490.79333	-755.99078	837.77814	1288.09888	-750.50964	822.40149	1146.94897	-742.70874	794.16461	1017.67450	-780.75812	723.97015	901.65131	-744.60779	766.46143	897.73505	-742.45532	739.29755	837.65369	-1196.52930	865.30963	1495.20483	-1284.46411	900.85687	1307.00854	-1310.94421	886.16211	1163.05286	-1340.91260	858.43878	1048.77563	-1335.39600	806.85168	921.76672	-1362.64575	856.73505	920.28845	-1372.45947	820.56506	857.28888	-905.77026	739.47107	974.17346	-1159.31628	732.70648	981.30627	-988.65533	946.85461	1024.73474	-1104.58105	948.69073	1034.84558	-842.00446	799.65424	664.02246	-851.80334	813.81592	480.38092	-858.27814	966.98065	379.49139	-889.23553	1113.36108	214.07249	-948.45007	1146.56909	214.29681	-862.00635	1045.71704	74.19106	-1233.77490	768.83862	680.53534	-1190.34546	741.68988	472.30060	-1193.11169	780.98743	286.20886	-1151.35120	803.40033	96.05073	-1092.98669	836.46039	43.42778	-1174.43750	653.01373	41.67926	-1032.40674	800.23230	1803.88855	-3360.28345	2845.17603	1033.96082																											 
2	0.010	-955.07367	695.53625	1719.58826	-1098.49194	712.77673	1705.97986	-934.90973	836.55328	1669.16711	-1075.26904	865.60382	1656.14221	-1007.49805	916.62793	1524.67688	-1025.25012	962.36530	1245.11963	-1006.27112	777.24817	1456.71655	-1026.17322	720.34479	1288.87854	-1075.09998	974.48047	1346.99500	-832.74542	841.15753	1491.57007	-758.40155	832.66064	1288.46619	-753.00012	819.34570	1147.27246	-743.32928	795.85004	1017.82373	-779.17883	729.74194	898.35077	-743.07391	772.94769	897.12024	-740.39270	748.69196	835.38361	-1198.53796	854.42273	1497.10913	-1288.00635	887.91327	1308.81287	-1314.25415	872.01465	1164.82874	-1343.76685	842.42926	1050.85425	-1337.81689	789.27313	924.72089	-1365.67871	838.87103	922.48413	-1375.20508	801.41962	860.24213	-906.34430	732.15631	975.64227	-1161.22021	724.21246	981.85791	-991.44928	938.93445	1026.25391	-1107.10339	940.62799	1036.30872	-842.89502	785.74072	666.52466	-853.21442	795.08344	483.18524	-862.02734	946.93500	381.29352	-893.31610	1091.92188	214.42067	-953.30725	1124.49561	212.60428	-860.59937	1021.87109	77.48595	-1234.77661	762.56665	680.56805	-1190.56055	739.21332	471.90134	-1193.19141	780.33063	286.26251	-1151.01550	803.32629	96.17642	-1092.81714	836.43256	43.49922	-1174.53784	652.99750	41.67781	-1033.95605	791.51855	1805.37866	-3360.15894	2845.18164	1034.06287																											 
3	0.020	-956.30347	686.41333	1721.21790	-1099.60950	703.82587	1707.60388	-936.53162	827.88043	1670.47083	-1076.97839	856.53424	1657.46545	-1009.65503	907.55042	1526.21484	-1028.30823	953.55017	1246.89099	-1007.66730	768.29895	1457.90869	-1027.56531	711.80682	1289.91956	-1078.53552	965.51105	1349.26697	-834.37360	833.09808	1492.41418	-760.88464	827.35364	1288.73865	-755.14081	816.73718	1147.85547	-743.94836	797.59216	1018.20978	-777.43616	734.47797	896.00909	-741.86200	779.13245	896.87720	-738.45642	757.61066	833.94745	-1200.45862	843.58484	1498.98572	-1290.90442	874.94476	1310.58215	-1317.51270	857.68298	1166.77087	-1346.56775	826.32874	1053.14514	-1340.12598	771.56500	927.85028	-1368.58398	820.74103	924.87762	-1377.80969	782.04938	863.20868	-906.63690	723.72791	977.61609	-1162.81580	716.50885	982.23865	-993.95026	931.09906	1027.94556	-1109.35083	932.62640	1037.55408	-843.75781	771.79993	669.28918	-854.60663	776.74219	486.02991	-865.37036	927.14899	382.47855	-897.17120	1069.72937	213.56834	-957.48175	1102.01221	209.84807	-860.09015	996.49866	79.81693	-1235.53040	756.70123	680.40863	-1190.85046	737.11584	471.60779	-1193.24707	779.87506	286.39853	-1150.81543	803.22699	96.29884	-1092.63464	836.21173	43.70578	-1174.56335	653.00409	41.67661	-1035.38892	782.88708	1806.81995	-3357.29297	2845.68433	1034.18945																											 
4	0.030	-957.51111	678.43750	1722.54590	-1100.67529	694.74683	1709.04468	-938.12024	819.17126	1671.90515	-1078.55933	847.41858	1658.77283	-1011.79272	898.65552	1527.72437	-1031.34351	945.43237	1248.80310	-1009.11761	759.37482	1459.06409	-1028.98584	703.26819	1290.91943	-1081.78174	956.58478	1351.50696	-836.12103	824.97168	1493.15002	-762.98059	822.60126	1289.33264	-756.97711	814.69061	1148.80408	-744.51691	799.47943	1018.92163	-775.97333	740.91388	893.92664	-740.69110	785.06622	897.30756	-736.73730	766.38098	833.04596	-1202.17456	832.92456	1500.95178	-1294.00952	861.95483	1312.54736	-1320.72644	843.27032	1168.97021	-1349.76086	810.08435	1055.77417	-1342.52393	753.71198	931.21857	-1371.19727	802.22485	927.34845	-1380.18750	762.77411	866.58789	-907.53265	715.99103	979.59235	-1164.79761	708.61304	983.14557	-996.17902	923.19629	1029.66663	-1111.33191	924.66809	1038.59766	-844.89087	757.37506	671.79364	-855.97919	758.93005	488.83932	-868.53363	907.69562	383.08713	-900.41071	1046.75562	211.48442	-960.92010	1079.00281	206.14020	-860.58942	970.07245	80.86501	-1236.31750	751.51569	680.21155	-1191.13989	734.97107	471.29910	-1193.33630	779.39551	286.49286	-1150.58594	803.04468	96.34354	-1092.32678	836.14648	43.57549	-1174.62195	653.01764	41.67135	-1036.76648	774.06024	1807.98999	-3357.37207	2845.88306	1034.05310																											 
